<svg width="1999.9999999999998" height="1999.9999999999998" xmlns="http://www.w3.org/2000/svg">
 <desc>untitled.blend, (Blender 2.83.5)</desc>

 <g>
  <title>background</title>
  <rect x="-1" y="-1" width="2002" height="2002" id="canvas_background" fill="none"/>
 </g>
 <g>
  <title>Layer 1</title>
  <path stroke="white" id="svg_3956" d="m1678.81847,1750.71782c0,0 8.16479,0.62806 7.74608,5.65255c0,0 3.55901,-2.30289 4.39643,-5.4432s5.02449,0 5.02449,0s1.67483,-3.14031 1.88418,-3.76836s17.167,8.16479 18.00441,8.37415s6.90867,-12.56122 6.90867,-12.56122s23.65696,7.11802 24.70372,6.90867s0.62806,-3.76836 0.62806,-3.76836l11.93316,0.62806l-1.25612,-5.02449l10.46768,7.53673l12.14251,-0.83741l6.07125,3.97772l11.7238,-5.02449l1.25612,1.67483l3.34966,-3.76836l5.8619,-0.62806l1.67483,-8.79285l-9.63027,1.46548l-1.25612,-5.02449c0,0 -6.69932,-0.20936 -6.28061,-0.83741s8.79285,-0.62806 8.79285,-0.62806l2.51224,-4.81513c0,0 -3.55901,-1.04677 -3.76836,-1.25612s6.07125,0 6.07125,0l2.93095,-1.88418l-2.30289,-3.14031l4.18707,1.04677c0,0 12.35187,-11.7238 9.21156,-19.67924s-14.65475,-12.14251 -19.88859,-11.7238s-4.25658,4.81597 -4.25658,4.81597s-3.4895,-0.41871 -4.60578,-3.34966c0,0 0.83741,-2.65125 4.60578,-4.04723s-0.41955,-10.18882 -2.23338,-13.53848s0.14069,-2.23338 1.95453,-3.0708s-2.09437,-6.5603 -4.04806,-10.04897s0.94209,-3.83871 2.51224,-5.30418s-2.93095,-4.39643 -5.12917,-6.17593s-3.03563,-9.73494 -10.46768,-10.04897s-4.18707,-24.07567 -3.14031,-27.73935s-3.87304,-0.41871 -6.38529,-10.32783s-6.97818,-6.28061 -9.35141,-6.55947s-9.21156,2.65209 -10.32783,-0.13985s4.18707,-2.23338 6.14076,-1.95369s1.25612,-0.83741 2.23338,-2.37239s6.97818,5.02449 6.69932,-0.27886s-3.4895,-5.02449 -3.4895,-5.02449l1.53498,-1.81468c0,0 15.77103,-14.23604 15.91088,-20.2378s4.88464,-3.4895 4.88464,-7.67658s-15.63201,-6.83917 -18.14426,-6.42046s-5.72206,-3.4895 -7.53673,-2.23338s-5.02449,3.34966 -6.14076,2.65209s-6.97818,1.11627 -6.83917,-0.83741s2.7911,-4.32609 4.04723,-3.20981s2.65209,0.41871 2.65209,0.41871s2.51224,-2.23338 2.7911,-2.93095s-1.95369,-0.83741 -3.0708,-0.83741s-1.39597,-0.69757 -0.97726,-1.11627s16.32958,-11.16525 16.74829,-11.86365s3.06996,-4.18707 3.20981,-6.28061s-19.67924,-2.93095 -19.9581,-1.81468s-2.09353,2.93095 -2.09353,2.93095s-0.27886,-2.37239 -0.83741,-3.90821s-5.4432,-6.83917 -6.28061,-3.4895s-1.39597,5.4432 -2.23338,5.4432s-5.8619,1.95369 1.39597,5.02449c0,0 -0.97726,3.0708 -3.62851,0.83741s-3.0708,-2.7911 -2.51224,0.27886l0.13985,3.20981l-3.0708,-2.09353c0,0 -1.98886,2.02403 0.31403,3.90821c0,0 2.51224,1.57015 1.15145,2.51224s-1.88418,0.20936 -3.55901,-1.57015s-2.19821,1.57015 -1.25612,3.55901s-0.94209,1.15145 -1.67483,0s-1.88418,-3.55901 -2.7216,-1.98886s1.04677,6.90867 2.7216,9.0022s0.73274,8.79285 0.52338,9.10688s-5.23384,-0.94209 -4.71046,0.73274s5.54787,2.82627 3.87304,4.29175s-3.76836,1.7795 -5.33852,0.10468s-5.96658,1.25612 -3.34966,4.29175s0.94209,3.14031 -1.15145,2.19821s-5.12917,-1.88418 -4.91981,0.20936s0.31403,2.40757 0.31403,2.40757s-3.55901,-0.41871 -2.82627,1.25612s3.76836,0.62806 4.39643,1.98886s-1.15145,4.08239 -3.03563,4.18707s-5.75722,-0.52338 -3.55901,1.88418s9.52559,0.94209 11.30509,-1.67483s2.40757,-3.45434 2.93095,-3.87304s2.61692,-1.98886 2.61692,-1.98886l3.14198,-1.77867l0.41871,1.67483l-4.60578,3.14031l-1.46548,3.14031l-3.03563,2.93095c0.20936,2.09353 -0.41871,6.69932 -0.41871,6.69932l-4.5011,2.7216c0,0 2.82627,0.31403 3.76836,-0.31403s-3.03563,3.34966 -3.03563,3.34966l1.88418,1.88418c0,0 -3.55901,1.88418 -3.97772,5.23384s-2.93095,6.07125 -3.55901,6.48996s-1.04677,2.51224 0.83741,2.61692s4.18707,-1.25612 4.18707,-1.25612l1.25612,-3.66369l0.73274,-2.19821l1.15145,-3.87304l2.7216,-1.7795l0.31403,-3.34966l-0.83741,-2.7216l9.10688,-5.4432c0,0 -0.31403,4.81513 0.62806,7.01334s4.60578,2.82627 4.60578,2.82627l-5.65255,-0.73274c0,0 -1.98886,5.75722 -1.98886,6.28061s2.93095,6.07125 2.93095,6.07125l-4.60578,4.71046l-4.39643,6.28061l-0.41871,3.66369c0,0 -2.61692,0.41871 -2.93095,0.52338s4.81513,4.08239 4.81513,4.08239l1.3608,-1.7795l4.71046,6.90867l1.67483,-2.19821c0,0 -0.31403,-4.39643 -0.31403,-4.60578s4.60578,5.75722 4.60578,5.75722l3.14031,-0.62806c0,0 3.76836,-3.55901 5.23384,-1.88418s3.24498,-1.7795 3.24498,-1.7795l2.7216,0.94209l3.03563,0.10468l-0.62806,1.46548c0,0 -5.02449,-0.83741 -5.54787,1.04677s-5.54787,7.95544 -5.54787,7.95544s1.57015,1.88418 2.51224,4.81513s-0.52338,4.91981 -0.52338,4.91981l1.15145,1.04677l2.09353,-1.04677l-0.20936,3.87304l0,0.52338l2.40757,0.73274l3.24498,-3.76836l0.73274,2.09353l-2.40757,3.14031l0.94209,1.46548l-0.52338,1.46548l-4.08239,-0.62806l-0.83741,3.03563l2.93095,2.19821l-0.10468,1.46548l-4.18707,3.03563l0.62806,3.55901l5.4432,3.87304l-1.88418,2.09353l-3.87304,-5.12917l-1.67483,1.57015l1.57015,2.40757l-1.7795,1.98886l-1.3608,-3.76836c0,0 -3.24498,-1.57015 -4.18707,-0.20936s-2.61692,1.7795 -3.55901,0.62806s-2.09353,-2.7216 -2.09353,-2.7216s-1.7795,1.7795 -1.88418,2.09353s-3.66369,0.20936 -3.66369,0.20936l1.25612,-2.7216l-5.02449,-5.33852l-3.14031,2.93095l3.03563,6.07125l-3.97772,4.81513c0,0 -4.08239,2.61692 -4.08239,2.19821s1.67483,3.87304 1.67483,3.87304l5.75722,-4.18707l3.34966,4.29175l0.10468,7.95544l-9.63027,8.37415l-4.60578,-0.52338l-3.14031,3.87304l-8.47882,-1.3608l-0.73274,7.64141l2.09353,1.15145l1.98886,3.45434l4.60578,0.31403l2.51224,-2.82627l4.71046,0.10468l0.73274,7.01334l3.45434,-0.31403l1.7795,-1.67483l2.40757,0.73274l1.7795,5.65255l4.18707,3.55901l3.45434,-0.52338l3.87304,-4.08239l2.7216,0.62806l1.98886,1.04677l-4.39643,3.55901l-1.57015,3.55901c0,0 0.20936,0.52338 -0.10468,0.52338s-5.4432,1.15145 -5.4432,1.15145l-7.11802,-4.5011c0,0 -7.11802,0.41871 -7.32738,0.10468s-3.24498,5.33852 -3.24498,5.33852l-2.51224,0l-1.46548,-2.7216l-2.7216,2.61692l1.25612,4.18707l-6.48996,4.81513c0,0 -1.57015,-0.62806 -1.98886,-0.62806s-1.88418,3.24498 -1.88418,3.24498s-3.45434,1.7795 -3.34966,1.57015s-1.15145,3.03563 -1.15145,3.03563l-7.64141,0.10468l-3.14031,0.41871l0.20936,2.93095l0,-0.00004z" fill="#ff0099" stroke-width="2"/>
  <path stroke="white" id="svg_1" d="m1497.85634,1775.69516c0,0 9.64197,0.74169 9.14751,6.67521c0,0 4.20291,-2.71953 5.19183,-6.42799s5.93353,0 5.93353,0s1.97784,-3.70845 2.22507,-4.45014s20.27287,9.64197 21.26179,9.8892s8.15859,-14.8338 8.15859,-14.8338s27.937,8.40583 29.17315,8.15859s0.74169,-4.45014 0.74169,-4.45014l14.09212,0.74169l-1.48338,-5.93353l12.3615,8.90028l14.33934,-0.98892l7.16967,4.69737l13.84488,-5.93353l1.48338,1.97784l3.95568,-4.45014l6.92245,-0.74169l1.97784,-10.38366l-11.37258,1.73061l-1.48338,-5.93353c0,0 -7.91137,-0.24723 -7.41691,-0.98892s10.38366,-0.74169 10.38366,-0.74169l2.96676,-5.68629c0,0 -4.20291,-1.23615 -4.45014,-1.48338s7.16967,0 7.16967,0l3.46122,-2.22507l-2.71953,-3.70845l4.9446,1.23615c0,0 14.58658,-13.84488 10.87812,-23.23963s-17.3061,-14.33934 -23.48685,-13.84488s-5.02668,5.68728 -5.02668,5.68728s-4.12083,-0.49446 -5.43906,-3.95568c0,0 0.98892,-3.13092 5.43906,-4.77946s-0.49545,-12.03219 -2.63745,-15.98787s0.16614,-2.63745 2.30814,-3.62637s-2.47329,-7.7472 -4.78044,-11.86704s1.11253,-4.53321 2.96676,-6.26382s-3.46122,-5.19183 -6.05714,-7.29328s-3.58484,-11.4962 -12.3615,-11.86704s-4.9446,-28.43146 -3.70845,-32.75799s-4.57376,-0.49446 -7.54052,-12.19635s-8.24067,-7.41691 -11.04327,-7.74621s-10.87812,3.13191 -12.19635,-0.16515s4.9446,-2.63745 7.25175,-2.30715s1.48338,-0.98892 2.63745,-2.80161s8.24067,5.93353 7.91137,-0.32931s-4.12083,-5.93353 -4.12083,-5.93353l1.81269,-2.14299c0,0 18.62434,-16.81164 18.78949,-23.89924s5.76838,-4.12083 5.76838,-9.06544s-18.46017,-8.07652 -21.42694,-7.58206s-6.7573,-4.12083 -8.90028,-2.63745s-5.93353,3.95568 -7.25175,3.13191s-8.24067,1.31823 -8.07652,-0.98892s3.29607,-5.10877 4.77946,-3.79053s3.13191,0.49446 3.13191,0.49446s2.96676,-2.63745 3.29607,-3.46122s-2.30715,-0.98892 -3.62637,-0.98892s-1.64853,-0.82377 -1.15407,-1.31823s19.28395,-13.18527 19.77841,-14.01003s3.62539,-4.9446 3.79053,-7.41691s-23.23963,-3.46122 -23.56894,-2.14299s-2.4723,3.46122 -2.4723,3.46122s-0.32931,-2.80161 -0.98892,-4.61529s-6.42799,-8.07652 -7.41691,-4.12083s-1.64853,6.42799 -2.63745,6.42799s-6.92245,2.30715 1.64853,5.93353c0,0 -1.15407,3.62637 -4.28499,0.98892s-3.62637,-3.29607 -2.96676,0.32931l0.16515,3.79053l-3.62637,-2.4723c0,0 -2.34869,2.39022 0.37085,4.61529c0,0 2.96676,1.85423 1.35977,2.96676s-2.22507,0.24723 -4.20291,-1.85423s-2.59591,1.85423 -1.48338,4.20291s-1.11253,1.35977 -1.97784,0s-2.22507,-4.20291 -3.21399,-2.34869s1.23615,8.15859 3.21399,10.63089s0.86531,10.38366 0.61807,10.75451s-6.18075,-1.11253 -5.56268,0.86531s6.5516,3.33761 4.57376,5.06822s-4.45014,2.10145 -6.30437,0.12361s-7.04606,1.48338 -3.95568,5.06822s1.11253,3.70845 -1.35977,2.59591s-6.05714,-2.22507 -5.80991,0.24723s0.37085,2.84315 0.37085,2.84315s-4.20291,-0.49446 -3.33761,1.48338s4.45014,0.74169 5.19183,2.34869s-1.35977,4.82099 -3.58484,4.9446s-6.79883,-0.61807 -4.20291,2.22507s11.24897,1.11253 13.35042,-1.97784s2.84315,-4.0793 3.46122,-4.57376s3.09038,-2.34869 3.09038,-2.34869l3.71043,-2.10047l0.49446,1.97784l-5.43906,3.70845l-1.73061,3.70845l-3.58484,3.46122c0.24723,2.4723 -0.49446,7.91137 -0.49446,7.91137l-5.31545,3.21399c0,0 3.33761,0.37085 4.45014,-0.37085s-3.58484,3.95568 -3.58484,3.95568l2.22507,2.22507c0,0 -4.20291,2.22507 -4.69737,6.18075s-3.46122,7.16967 -4.20291,7.66413s-1.23615,2.96676 0.98892,3.09038s4.9446,-1.48338 4.9446,-1.48338l1.48338,-4.32653l0.86531,-2.59591l1.35977,-4.57376l3.21399,-2.10145l0.37085,-3.95568l-0.98892,-3.21399l10.75451,-6.42799c0,0 -0.37085,5.68629 0.74169,8.2822s5.43906,3.33761 5.43906,3.33761l-6.67521,-0.86531c0,0 -2.34869,6.79883 -2.34869,7.41691s3.46122,7.16967 3.46122,7.16967l-5.43906,5.56268l-5.19183,7.41691l-0.49446,4.32653c0,0 -3.09038,0.49446 -3.46122,0.61807s5.68629,4.82099 5.68629,4.82099l1.60699,-2.10145l5.56268,8.15859l1.97784,-2.59591c0,0 -0.37085,-5.19183 -0.37085,-5.43906s5.43906,6.79883 5.43906,6.79883l3.70845,-0.74169c0,0 4.45014,-4.20291 6.18075,-2.22507s3.83207,-2.10145 3.83207,-2.10145l3.21399,1.11253l3.58484,0.12361l-0.74169,1.73061c0,0 -5.93353,-0.98892 -6.5516,1.23615s-6.5516,9.39474 -6.5516,9.39474s1.85423,2.22507 2.96676,5.68629s-0.61807,5.80991 -0.61807,5.80991l1.35977,1.23615l2.4723,-1.23615l-0.24723,4.57376l0,0.61807l2.84315,0.86531l3.83207,-4.45014l0.86531,2.4723l-2.84315,3.70845l1.11253,1.73061l-0.61807,1.73061l-4.82099,-0.74169l-0.98892,3.58484l3.46122,2.59591l-0.12361,1.73061l-4.9446,3.58484l0.74169,4.20291l6.42799,4.57376l-2.22507,2.4723l-4.57376,-6.05714l-1.97784,1.85423l1.85423,2.84315l-2.10145,2.34869l-1.60699,-4.45014c0,0 -3.83207,-1.85423 -4.9446,-0.24723s-3.09038,2.10145 -4.20291,0.74169s-2.4723,-3.21399 -2.4723,-3.21399s-2.10145,2.10145 -2.22507,2.4723s-4.32653,0.24723 -4.32653,0.24723l1.48338,-3.21399l-5.93353,-6.30437l-3.70845,3.46122l3.58484,7.16967l-4.69737,5.68629c0,0 -4.82099,3.09038 -4.82099,2.59591s1.97784,4.57376 1.97784,4.57376l6.79883,-4.9446l3.95568,5.06822l0.12361,9.39474l-11.37258,9.8892l-5.43906,-0.61807l-3.70845,4.57376l-10.01282,-1.60699l-0.86531,9.0239l2.4723,1.35977l2.34869,4.0793l5.43906,0.37085l2.96676,-3.33761l5.56268,0.12361l0.86531,8.2822l4.0793,-0.37085l2.10145,-1.97784l2.84315,0.86531l2.10145,6.67521l4.9446,4.20291l4.0793,-0.61807l4.57376,-4.82099l3.21399,0.74169l2.34869,1.23615l-5.19183,4.20291l-1.85423,4.20291c0,0 0.24723,0.61807 -0.12361,0.61807s-6.42799,1.35977 -6.42799,1.35977l-8.40583,-5.31545c0,0 -8.40583,0.49446 -8.65305,0.12361s-3.83207,6.30437 -3.83207,6.30437l-2.96676,0l-1.73061,-3.21399l-3.21399,3.09038l1.48338,4.9446l-7.66413,5.68629c0,0 -1.85423,-0.74169 -2.34869,-0.74169s-2.22507,3.83207 -2.22507,3.83207s-4.0793,2.10145 -3.95568,1.85423s-1.35977,3.58484 -1.35977,3.58484l-9.0239,0.12361l-3.70845,0.49446l0.24723,3.46122l0,-0.00005z" fill="#ff9900" stroke-width="2"/>
 </g>
</svg>