<svg width="1999.9999999999998" height="1999.9999999999998" xmlns="http://www.w3.org/2000/svg">
 <desc>untitled.blend, (Blender 2.83.5)</desc>

 <g>
  <title>background</title>
  <rect fill="none" id="canvas_background" height="602" width="802" y="-1" x="-1"/>
 </g>
 <g>
  <title>Layer 1</title>
  <path stroke-width="2" stroke="white" fill="#ff9900" d="m1557.95831,1773.94183c0,0 13.619,1.04762 12.92059,9.42854c0,0 5.93649,-3.84126 7.33331,-9.07934s8.38093,0 8.38093,0s2.79364,-5.23808 3.14285,-6.28569s28.63483,13.619 30.03165,13.96821s11.52377,-20.95231 11.52377,-20.95231s39.46019,11.87298 41.20621,11.52377s1.04762,-6.28569 1.04762,-6.28569l19.9047,1.04762l-2.09523,-8.38093l17.46026,12.57139l20.2539,-1.39682l10.12695,6.6349l19.55549,-8.38093l2.09523,2.79364l5.58728,-6.28569l9.77775,-1.04762l2.79364,-14.66662l-16.06344,2.44444l-2.09523,-8.38093c0,0 -11.17457,-0.34921 -10.47616,-1.39682s14.66662,-1.04762 14.66662,-1.04762l4.19046,-8.03172c0,0 -5.93649,-1.74603 -6.28569,-2.09523s10.12695,0 10.12695,0l4.88887,-3.14285l-3.84126,-5.23808l6.9841,1.74603c0,0 20.60311,-19.55549 15.36503,-32.82529s-24.44436,-20.2539 -33.17449,-19.55549s-7.10004,8.03312 -7.10004,8.03312s-5.82055,-0.69841 -7.68251,-5.58728c0,0 1.39682,-4.42233 7.68251,-6.75084s-0.69981,-16.99512 -3.72532,-22.5824s0.23467,-3.72532 3.26018,-5.12214s-3.49345,-10.94269 -6.75223,-16.76185s1.57142,-6.40303 4.19046,-8.84746s-4.88887,-7.33331 -8.55553,-10.30155s-5.06348,-16.23804 -17.46026,-16.76185s-6.9841,-40.1586 -5.23808,-46.26969s-6.4603,-0.69841 -10.65076,-17.22699s-11.63971,-10.47616 -15.5983,-10.9413s-15.36503,4.42373 -17.22699,-0.23327s6.9841,-3.72532 10.24289,-3.25878s2.09523,-1.39682 3.72532,-3.95719s11.63971,8.38093 11.17457,-0.46514s-5.82055,-8.38093 -5.82055,-8.38093l2.56037,-3.02691c0,0 26.30633,-23.74595 26.5396,-33.75697s8.14766,-5.82055 8.14766,-12.80466s-26.07445,-11.40784 -30.26492,-10.70943s-9.54448,-5.82055 -12.57139,-3.72532s-8.38093,5.58728 -10.24289,4.42373s-11.63971,1.86196 -11.40784,-1.39682s4.6556,-7.21598 6.75084,-5.35401s4.42373,0.69841 4.42373,0.69841s4.19046,-3.72532 4.6556,-4.88887s-3.25878,-1.39682 -5.12214,-1.39682s-2.3285,-1.16355 -1.63009,-1.86196s27.23801,-18.62381 27.93642,-19.78876s5.12075,-6.9841 5.35401,-10.47616s-32.82529,-4.88887 -33.29043,-3.02691s-3.49205,4.88887 -3.49205,4.88887s-0.46514,-3.95719 -1.39682,-6.51896s-9.07934,-11.40784 -10.47616,-5.82055s-2.3285,9.07934 -3.72532,9.07934s-9.77775,3.25878 2.3285,8.38093c0,0 -1.63009,5.12214 -6.05242,1.39682s-5.12214,-4.6556 -4.19046,0.46514l0.23327,5.35401l-5.12214,-3.49205c0,0 -3.31745,3.37612 0.52381,6.51896c0,0 4.19046,2.61904 1.92063,4.19046s-3.14285,0.34921 -5.93649,-2.61904s-3.66665,2.61904 -2.09523,5.93649s-1.57142,1.92063 -2.79364,0s-3.14285,-5.93649 -4.53967,-3.31745s1.74603,11.52377 4.53967,15.01582s1.22222,14.66662 0.87301,15.19043s-8.73013,-1.57142 -7.85712,1.22222s9.25394,4.71427 6.4603,7.15871s-6.28569,2.96824 -8.90473,0.1746s-9.95235,2.09523 -5.58728,7.15871s1.57142,5.23808 -1.92063,3.66665s-8.55553,-3.14285 -8.20632,0.34921s0.52381,4.01586 0.52381,4.01586s-5.93649,-0.69841 -4.71427,2.09523s6.28569,1.04762 7.33331,3.31745s-1.92063,6.8095 -5.06348,6.9841s-9.60314,-0.87301 -5.93649,3.14285s15.88884,1.57142 18.85708,-2.79364s4.01586,-5.76189 4.88887,-6.4603s4.36507,-3.31745 4.36507,-3.31745l5.24087,-2.96685l0.69841,2.79364l-7.68251,5.23808l-2.44444,5.23808l-5.06348,4.88887c0.34921,3.49205 -0.69841,11.17457 -0.69841,11.17457l-7.50791,4.53967c0,0 4.71427,0.52381 6.28569,-0.52381s-5.06348,5.58728 -5.06348,5.58728l3.14285,3.14285c0,0 -5.93649,3.14285 -6.6349,8.73013s-4.88887,10.12695 -5.93649,10.82536s-1.74603,4.19046 1.39682,4.36507s6.9841,-2.09523 6.9841,-2.09523l2.09523,-6.11109l1.22222,-3.66665l1.92063,-6.4603l4.53967,-2.96824l0.52381,-5.58728l-1.39682,-4.53967l15.19043,-9.07934c0,0 -0.52381,8.03172 1.04762,11.69837s7.68251,4.71427 7.68251,4.71427l-9.42854,-1.22222c0,0 -3.31745,9.60314 -3.31745,10.47616s4.88887,10.12695 4.88887,10.12695l-7.68251,7.85712l-7.33331,10.47616l-0.69841,6.11109c0,0 -4.36507,0.69841 -4.88887,0.87301s8.03172,6.8095 8.03172,6.8095l2.26983,-2.96824l7.85712,11.52377l2.79364,-3.66665c0,0 -0.52381,-7.33331 -0.52381,-7.68251s7.68251,9.60314 7.68251,9.60314l5.23808,-1.04762c0,0 6.28569,-5.93649 8.73013,-3.14285s5.41268,-2.96824 5.41268,-2.96824l4.53967,1.57142l5.06348,0.1746l-1.04762,2.44444c0,0 -8.38093,-1.39682 -9.25394,1.74603s-9.25394,13.2698 -9.25394,13.2698s2.61904,3.14285 4.19046,8.03172s-0.87301,8.20632 -0.87301,8.20632l1.92063,1.74603l3.49205,-1.74603l-0.34921,6.4603l0,0.87301l4.01586,1.22222l5.41268,-6.28569l1.22222,3.49205l-4.01586,5.23808l1.57142,2.44444l-0.87301,2.44444l-6.8095,-1.04762l-1.39682,5.06348l4.88887,3.66665l-0.1746,2.44444l-6.9841,5.06348l1.04762,5.93649l9.07934,6.4603l-3.14285,3.49205l-6.4603,-8.55553l-2.79364,2.61904l2.61904,4.01586l-2.96824,3.31745l-2.26983,-6.28569c0,0 -5.41268,-2.61904 -6.9841,-0.34921s-4.36507,2.96824 -5.93649,1.04762s-3.49205,-4.53967 -3.49205,-4.53967s-2.96824,2.96824 -3.14285,3.49205s-6.11109,0.34921 -6.11109,0.34921l2.09523,-4.53967l-8.38093,-8.90473l-5.23808,4.88887l5.06348,10.12695l-6.6349,8.03172c0,0 -6.8095,4.36507 -6.8095,3.66665s2.79364,6.4603 2.79364,6.4603l9.60314,-6.9841l5.58728,7.15871l0.1746,13.2698l-16.06344,13.96821l-7.68251,-0.87301l-5.23808,6.4603l-14.14281,-2.26983l-1.22222,12.74599l3.49205,1.92063l3.31745,5.76189l7.68251,0.52381l4.19046,-4.71427l7.85712,0.1746l1.22222,11.69837l5.76189,-0.52381l2.96824,-2.79364l4.01586,1.22222l2.96824,9.42854l6.9841,5.93649l5.76189,-0.87301l6.4603,-6.8095l4.53967,1.04762l3.31745,1.74603l-7.33331,5.93649l-2.61904,5.93649c0,0 0.34921,0.87301 -0.1746,0.87301s-9.07934,1.92063 -9.07934,1.92063l-11.87298,-7.50791c0,0 -11.87298,0.69841 -12.22218,0.1746s-5.41268,8.90473 -5.41268,8.90473l-4.19046,0l-2.44444,-4.53967l-4.53967,4.36507l2.09523,6.9841l-10.82536,8.03172c0,0 -2.61904,-1.04762 -3.31745,-1.04762s-3.14285,5.41268 -3.14285,5.41268s-5.76189,2.96824 -5.58728,2.61904s-1.92063,5.06348 -1.92063,5.06348l-12.74599,0.1746l-5.23808,0.69841l0.34921,4.88887z" id="svg_3956"/>
 </g>
</svg>