<svg width="2000" height="2000" xmlns="http://www.w3.org/2000/svg">
 <desc>untitled.blend, (Blender 2.83.5)</desc>

 <g>
  <title>background</title>
  <rect x="-1" y="-1" width="2002" height="2002" id="canvas_background" fill="none"/>
 </g>
 <g>
  <title>Layer 1</title>
  <rect stroke="#000" fill="#ff9900" stroke-width="0" x="746.71422" y="23.52591" width="558.28577" height="264.16886" id="colour_1"/>
  <rect stroke="#000" fill="#99ff00" stroke-width="0" stroke-opacity="null" x="742.96756" y="270.99999" width="568.03244" height="566.99999" id="colour_2"/>
  <path id="svg_3956" d="m987.53257,684.9133c0,0 9.75,0.75 9.25,6.75c0,0 4.25,-2.75 5.25,-6.5s6,0 6,0s2,-3.75 2.25,-4.5s20.5,9.75 21.5,10s8.25,-15 8.25,-15s28.25,8.5 29.5,8.25s0.75,-4.5 0.75,-4.5l14.25,0.75l-1.5,-6l12.5,9l14.5,-1l7.25,4.75l14,-6l1.5,2l4,-4.5l7,-0.75l2,-10.5l-11.5,1.75l-1.5,-6c0,0 -8,-0.25 -7.5,-1s10.5,-0.75 10.5,-0.75l3,-5.75c0,0 -4.25,-1.25 -4.5,-1.5s7.25,0 7.25,0l3.5,-2.25l-2.75,-3.75l5,1.25c0,0 14.75,-14 11,-23.5s-17.5,-14.5 -23.75,-14s-5.083,5.751 -5.083,5.751s-4.167,-0.5 -5.5,-4c0,0 1,-3.166 5.5,-4.833s-0.501,-12.167 -2.667,-16.167s0.168,-2.667 2.334,-3.667s-2.501,-7.834 -4.834,-12s1.125,-4.584 3,-6.334s-3.5,-5.25 -6.125,-7.375s-3.625,-11.625 -12.5,-12s-5,-28.75 -3.75,-33.125s-4.625,-0.5 -7.625,-12.333s-8.333,-7.5 -11.167,-7.833s-11,3.167 -12.333,-0.167s5,-2.667 7.333,-2.333s1.5,-1 2.667,-2.833s8.333,6 8,-0.333s-4.167,-6 -4.167,-6l1.833,-2.167c0,0 18.833,-17 19,-24.167s5.833,-4.167 5.833,-9.167s-18.667,-8.167 -21.667,-7.667s-6.833,-4.167 -9,-2.667s-6,4 -7.333,3.167s-8.333,1.333 -8.167,-1s3.333,-5.166 4.833,-3.833s3.167,0.5 3.167,0.5s3,-2.667 3.333,-3.5s-2.333,-1 -3.667,-1s-1.667,-0.833 -1.167,-1.333s19.5,-13.333 20,-14.167s3.666,-5 3.833,-7.5s-23.5,-3.5 -23.833,-2.167s-2.5,3.5 -2.5,3.5s-0.333,-2.833 -1,-4.667s-6.5,-8.167 -7.5,-4.167s-1.667,6.5 -2.667,6.5s-7,2.333 1.667,6c0,0 -1.167,3.667 -4.333,1s-3.667,-3.333 -3,0.333l0.167,3.833l-3.667,-2.5c0,0 -2.375,2.417 0.375,4.667c0,0 3,1.875 1.375,3s-2.25,0.25 -4.25,-1.875s-2.625,1.875 -1.5,4.25s-1.125,1.375 -2,0s-2.25,-4.25 -3.25,-2.375s1.25,8.25 3.25,10.75s0.875,10.5 0.625,10.875s-6.25,-1.125 -5.625,0.875s6.625,3.375 4.625,5.125s-4.5,2.125 -6.375,0.125s-7.125,1.5 -4,5.125s1.125,3.75 -1.375,2.625s-6.125,-2.25 -5.875,0.25s0.375,2.875 0.375,2.875s-4.25,-0.5 -3.375,1.5s4.5,0.75 5.25,2.375s-1.375,4.875 -3.625,5s-6.875,-0.625 -4.25,2.25s11.375,1.125 13.5,-2s2.875,-4.125 3.5,-4.625s3.125,-2.375 3.125,-2.375l3.752,-2.124l0.5,2l-5.5,3.75l-1.75,3.75l-3.625,3.5c0.25,2.5 -0.5,8 -0.5,8l-5.375,3.25c0,0 3.375,0.375 4.5,-0.375s-3.625,4 -3.625,4l2.25,2.25c0,0 -4.25,2.25 -4.75,6.25s-3.5,7.25 -4.25,7.75s-1.25,3 1,3.125s5,-1.5 5,-1.5l1.5,-4.375l0.875,-2.625l1.375,-4.625l3.25,-2.125l0.375,-4l-1,-3.25l10.875,-6.5c0,0 -0.375,5.75 0.75,8.375s5.5,3.375 5.5,3.375l-6.75,-0.875c0,0 -2.375,6.875 -2.375,7.5s3.5,7.25 3.5,7.25l-5.5,5.625l-5.25,7.5l-0.5,4.375c0,0 -3.125,0.5 -3.5,0.625s5.75,4.875 5.75,4.875l1.625,-2.125l5.625,8.25l2,-2.625c0,0 -0.375,-5.25 -0.375,-5.5s5.5,6.875 5.5,6.875l3.75,-0.75c0,0 4.5,-4.25 6.25,-2.25s3.875,-2.125 3.875,-2.125l3.25,1.125l3.625,0.125l-0.75,1.75c0,0 -6,-1 -6.625,1.25s-6.625,9.5 -6.625,9.5s1.875,2.25 3,5.75s-0.625,5.875 -0.625,5.875l1.375,1.25l2.5,-1.25l-0.25,4.625l0,0.625l2.875,0.875l3.875,-4.5l0.875,2.5l-2.875,3.75l1.125,1.75l-0.625,1.75l-4.875,-0.75l-1,3.625l3.5,2.625l-0.125,1.75l-5,3.625l0.75,4.25l6.5,4.625l-2.25,2.5l-4.625,-6.125l-2,1.875l1.875,2.875l-2.125,2.375l-1.625,-4.5c0,0 -3.875,-1.875 -5,-0.25s-3.125,2.125 -4.25,0.75s-2.5,-3.25 -2.5,-3.25s-2.125,2.125 -2.25,2.5s-4.375,0.25 -4.375,0.25l1.5,-3.25l-6,-6.375l-3.75,3.5l3.625,7.25l-4.75,5.75c0,0 -4.875,3.125 -4.875,2.625s2,4.625 2,4.625l6.875,-5l4,5.125l0.125,9.5l-11.5,10l-5.5,-0.625l-3.75,4.625l-10.125,-1.625l-0.875,9.125l2.5,1.375l2.375,4.125l5.5,0.375l3,-3.375l5.625,0.125l0.875,8.375l4.125,-0.375l2.125,-2l2.875,0.875l2.125,6.75l5,4.25l4.125,-0.625l4.625,-4.875l3.25,0.75l2.375,1.25l-5.25,4.25l-1.875,4.25c0,0 0.25,0.625 -0.125,0.625s-6.5,1.375 -6.5,1.375l-8.5,-5.375c0,0 -8.5,0.5 -8.75,0.125s-3.875,6.375 -3.875,6.375l-3,0l-1.75,-3.25l-3.25,3.125l1.5,5l-7.75,5.75c0,0 -1.875,-0.75 -2.375,-0.75s-2.25,3.875 -2.25,3.875s-4.125,2.125 -4,1.875s-1.375,3.625 -1.375,3.625l-9.125,0.125l-3.75,0.5l0.25,3.5z" fill="#ff9900"/>
 </g>
</svg>