{
    "asset" : {
        "generator" : "Khronos glTF Blender I/O v1.3.48",
        "version" : "2.0"
    },
    "scene" : 0,
    "scenes" : [
        {
            "name" : "Scene",
            "nodes" : [
                0,
                1,
                5
            ]
        }
    ],
    "nodes" : [
        {
            "name" : "Light",
            "rotation" : [
                0.16907575726509094,
                0.7558803558349609,
                -0.27217137813568115,
                0.570947527885437
            ],
            "translation" : [
                4.076245307922363,
                5.903861999511719,
                -1.0054539442062378
            ]
        },
        {
            "name" : "Camera",
            "rotation" : [
                0.483536034822464,
                0.33687159419059753,
                -0.20870360732078552,
                0.7804827094078064
            ],
            "translation" : [
                7.358891487121582,
                4.958309173583984,
                6.925790786743164
            ]
        },
        {
            "mesh" : 0,
            "name" : "mainmesh"
        },
        {
            "children" : [
                2
            ],
            "name" : "TopoFoot_UV_Low.obj.cleaner.materialmerger.gles"
        },
        {
            "children" : [
                3
            ],
            "name" : "RootNode (model correction matrix)"
        },
        {
            "children" : [
                4
            ],
            "name" : "RootNode (gltf orientation matrix)",
            "rotation" : [
                -0.7071068286895752,
                0,
                0,
                0.7071068286895752
            ]
        }
    ],
    "materials" : [
        {
            "doubleSided" : true,
            "emissiveFactor" : [
                0,
                0,
                0
            ],
            "name" : "default",
            "normalTexture" : {
                "index" : 0,
                "texCoord" : 0
            },
            "pbrMetallicRoughness" : {
                "baseColorTexture" : {
                    "index" : 1,
                    "texCoord" : 0
                },
                "metallicRoughnessTexture" : {
                    "index" : 2,
                    "texCoord" : 0
                }
            }
        }
    ],
    "meshes" : [
        {
            "name" : "Mesh_0",
            "primitives" : [
                {
                    "attributes" : {
                        "POSITION" : 0,
                        "NORMAL" : 1,
                        "TEXCOORD_0" : 2
                    },
                    "indices" : 3,
                    "material" : 0
                }
            ]
        }
    ],
    "textures" : [
        {
            "source" : 0
        },
        {
            "source" : 1
        },
        {
            "source" : 2
        }
    ],
    "images" : [
        {
            "mimeType" : "image/png",
            "name" : "default_normal",
            "uri" : "textures/default_normal.png"
        },
        {
            "mimeType" : "image/png",
            "name" : "default_baseColor",
            "uri" : "textures/default_baseColor.png"
        },
        {
            "mimeType" : "image/png",
            "name" : "default_metallicRoughness",
            "uri" : "textures/default_metallicRoughness.png"
        }
    ],
    "accessors" : [
        {
            "bufferView" : 0,
            "componentType" : 5126,
            "count" : 319,
            "max" : [
                39.77635192871094,
                33.856910705566406,
                75.6960220336914
            ],
            "min" : [
                -41.73048400878906,
                -1.6449168920516968,
                -3.2718701362609863
            ],
            "type" : "VEC3"
        },
        {
            "bufferView" : 1,
            "componentType" : 5126,
            "count" : 319,
            "type" : "VEC3"
        },
        {
            "bufferView" : 2,
            "componentType" : 5126,
            "count" : 319,
            "type" : "VEC2"
        },
        {
            "bufferView" : 3,
            "componentType" : 5123,
            "count" : 1392,
            "type" : "SCALAR"
        }
    ],
    "bufferViews" : [
        {
            "buffer" : 0,
            "byteLength" : 3828,
            "byteOffset" : 0
        },
        {
            "buffer" : 0,
            "byteLength" : 3828,
            "byteOffset" : 3828
        },
        {
            "buffer" : 0,
            "byteLength" : 2552,
            "byteOffset" : 7656
        },
        {
            "buffer" : 0,
            "byteLength" : 2784,
            "byteOffset" : 10208
        }
    ],
    "buffers" : [
        {
            "byteLength" : 12992,
            "uri" : "scene.bin"
        }
    ]
}
